<?xml version="1.0" encoding="UTF-8"?>
<svg xmlns="http://www.w3.org/2000/svg" version="1.1" viewBox="0 0 786 947.1">
  <defs>
    <style>
      .cls-1 {
        fill: #fff;
      }
    </style>
  </defs>
  <!-- Generator: Adobe Illustrator 28.7.0, SVG Export Plug-In . SVG Version: 1.2.0 Build 136)  -->
  <g>
    <g id="Layer_1">
      <path class="cls-1" d="M.2,119.6c38-8.4,75.6-15.8,112.7-25C207.2,71.4,298.8,40.2,387.9,1.6c4.7-2,8.5-2.1,13.2,0,95.5,42,193.9,75.3,295.6,98.5,26.9,6.2,54.1,11.4,81.1,17,2.5.5,5,1.2,8.3,2,0,6.5,0,12.8,0,19-.4,83.8-.5,167.7-1.2,251.5-.3,39.5-.6,79.1-3.1,118.6-3.5,56-18.4,109.5-40.6,160.9-24.1,56-57,106.2-99.6,149.7-29.5,30.2-62.9,55.7-99.7,76.5-44.2,24.9-91.1,42.6-141.1,51.1-8.6,1.5-18.2-.1-26.8-2.5-164.9-45.9-283-145.4-346.1-306.2C8.8,589.6-.2,539.1,0,486.9c.4-119.5.1-238.9.2-358.4,0-2.9,0-5.7,0-8.9ZM47.8,159.4c0,4.7,0,10.4,0,16.1,0,103,.2,205.9-.2,308.9-.2,51.5,9.3,101.1,29.1,148.2,56.4,133.9,156.8,218.9,294.7,261.1,10.1,3.1,20,6.9,31.2,4.3,97.9-22.6,178.1-73.1,239-153.2,57.9-76.2,90.5-162.7,93.6-258.1,3.5-104.7,2.1-209.5,2.8-314.3,0-14.3,0-14.2-14.2-17.2-109.6-22.9-215.9-56.3-318.9-100-7.7-3.3-13.9-3.1-21.4,0-69.9,29.5-141.5,54.4-214.8,74.1-39.7,10.7-79.9,19.9-121.1,30.1Z"/>
      <path class="cls-1" d="M347,624.3c-9,19.5-17.7,38.1-26.3,56.8-1.5,3.3-3.3,5-7.2,3.1-38.1-18.2-76.3-36.3-114.5-54.5-.4-.2-.7-.7-1.5-1.6,9.7-21,19.4-42.3,29.3-63.5,32.3-69.5,64.6-139.1,97.2-208.5,4.4-9.5,7.1-18.8,6.4-29.3-.6-9.6-.1-19.3-.1-29.9h-49.8v-66.5c9.6,0,19,0,28.3,0,29.1,0,58.2.1,87.2-.2,5.5,0,8.2,1.7,10.5,6.7,43.1,92.3,86.5,184.4,129.7,276.6,8.5,18.2,17.1,36.4,26.2,55.8,18-8.3,35.6-16.4,54.1-25,9.8,20.1,19.5,39.9,29.8,61.1-40.8,18.9-80.8,37.4-121.4,56.2-43.5-94.2-86.3-187-129.2-279.8-.9,0-1.9.1-2.8.2-33.5,71.7-66.9,143.4-101.1,216.4,18.4,8.7,36.1,17.1,55.1,26Z"/>
    </g>
  </g>
</svg>